<mxfile host="www.draw.io" modified="2020-02-13T04:36:14.360Z" agent="Mozilla/5.0 (Windows NT 10.0; Win64; x64) AppleWebKit/537.36 (KHTML, like Gecko) Chrome/80.0.3987.100 Safari/537.36" etag="rQqtowHzJOue6hhEz9vF" version="12.6.8" type="github" pages="2">
  <diagram id="YM35j9Sx-z5eTo1XQplQ" name="5.1: Display New Group Home Form">
    <mxGraphModel dx="1038" dy="580" grid="1" gridSize="10" guides="1" tooltips="1" connect="1" arrows="1" fold="1" page="1" pageScale="1" pageWidth="850" pageHeight="1100" math="0" shadow="0">
      <root>
        <mxCell id="0"/>
        <mxCell id="1" parent="0"/>
        <mxCell id="jgVqWBmitHmfs1xv6YiN-1" value="5.1&lt;br&gt;Display New Group Home Form" style="whiteSpace=wrap;html=1;aspect=fixed;" vertex="1" parent="1">
          <mxGeometry x="395" y="40" width="80" height="80" as="geometry"/>
        </mxCell>
        <mxCell id="jgVqWBmitHmfs1xv6YiN-2" value="" style="endArrow=classic;html=1;" edge="1" parent="1">
          <mxGeometry width="50" height="50" relative="1" as="geometry">
            <mxPoint x="225" y="480" as="sourcePoint"/>
            <mxPoint x="225" y="480" as="targetPoint"/>
          </mxGeometry>
        </mxCell>
        <mxCell id="jgVqWBmitHmfs1xv6YiN-3" value="5.1.5&lt;br&gt;Display New Group Home Form on Screen" style="whiteSpace=wrap;html=1;aspect=fixed;" vertex="1" parent="1">
          <mxGeometry x="675" y="240" width="80" height="80" as="geometry"/>
        </mxCell>
        <mxCell id="jgVqWBmitHmfs1xv6YiN-4" value="" style="endArrow=classic;html=1;exitX=0;exitY=1;exitDx=0;exitDy=0;entryX=0.5;entryY=0;entryDx=0;entryDy=0;strokeWidth=2;" edge="1" parent="1" source="jgVqWBmitHmfs1xv6YiN-11" target="jgVqWBmitHmfs1xv6YiN-10">
          <mxGeometry width="50" height="50" relative="1" as="geometry">
            <mxPoint x="305" y="380" as="sourcePoint"/>
            <mxPoint x="235" y="440" as="targetPoint"/>
          </mxGeometry>
        </mxCell>
        <mxCell id="jgVqWBmitHmfs1xv6YiN-5" value="" style="endArrow=classic;html=1;exitX=0.75;exitY=1;exitDx=0;exitDy=0;strokeWidth=2;entryX=0.5;entryY=0;entryDx=0;entryDy=0;" edge="1" parent="1" source="jgVqWBmitHmfs1xv6YiN-1" target="jgVqWBmitHmfs1xv6YiN-3">
          <mxGeometry width="50" height="50" relative="1" as="geometry">
            <mxPoint x="535" y="210" as="sourcePoint"/>
            <mxPoint x="560" y="240" as="targetPoint"/>
          </mxGeometry>
        </mxCell>
        <mxCell id="jgVqWBmitHmfs1xv6YiN-6" value="" style="endArrow=classic;html=1;exitX=0.25;exitY=1;exitDx=0;exitDy=0;entryX=0.5;entryY=0;entryDx=0;entryDy=0;strokeWidth=2;" edge="1" parent="1" source="jgVqWBmitHmfs1xv6YiN-1" target="jgVqWBmitHmfs1xv6YiN-8">
          <mxGeometry width="50" height="50" relative="1" as="geometry">
            <mxPoint x="285" y="160" as="sourcePoint"/>
            <mxPoint x="135" y="240" as="targetPoint"/>
          </mxGeometry>
        </mxCell>
        <mxCell id="jgVqWBmitHmfs1xv6YiN-7" value="" style="endArrow=classic;html=1;strokeWidth=2;entryX=0.5;entryY=0;entryDx=0;entryDy=0;exitX=1;exitY=1;exitDx=0;exitDy=0;" edge="1" parent="1" source="jgVqWBmitHmfs1xv6YiN-11" target="jgVqWBmitHmfs1xv6YiN-9">
          <mxGeometry width="50" height="50" relative="1" as="geometry">
            <mxPoint x="225" y="350" as="sourcePoint"/>
            <mxPoint x="125" y="440" as="targetPoint"/>
          </mxGeometry>
        </mxCell>
        <mxCell id="jgVqWBmitHmfs1xv6YiN-8" value="&lt;span style=&quot;white-space: normal&quot;&gt;1.1.1&lt;br&gt;&lt;/span&gt;Authenticate User" style="shape=process;whiteSpace=wrap;html=1;backgroundOutline=1;" vertex="1" parent="1">
          <mxGeometry x="195" y="240" width="90" height="80" as="geometry"/>
        </mxCell>
        <mxCell id="jgVqWBmitHmfs1xv6YiN-9" value="1.1.1.2&lt;br&gt;Deny Access" style="shape=process;whiteSpace=wrap;html=1;backgroundOutline=1;" vertex="1" parent="1">
          <mxGeometry x="205" y="390" width="90" height="80" as="geometry"/>
        </mxCell>
        <mxCell id="jgVqWBmitHmfs1xv6YiN-10" value="1.1.1.1&lt;br&gt;Allow Access" style="shape=process;whiteSpace=wrap;html=1;backgroundOutline=1;" vertex="1" parent="1">
          <mxGeometry x="95" y="390" width="90" height="80" as="geometry"/>
        </mxCell>
        <mxCell id="jgVqWBmitHmfs1xv6YiN-11" value="" style="rhombus;whiteSpace=wrap;html=1;fillColor=#FFFFFF;" vertex="1" parent="1">
          <mxGeometry x="230" y="305" width="20" height="30" as="geometry"/>
        </mxCell>
        <mxCell id="jgVqWBmitHmfs1xv6YiN-12" value="" style="endArrow=classic;html=1;" edge="1" parent="1">
          <mxGeometry width="50" height="50" relative="1" as="geometry">
            <mxPoint x="385" y="485" as="sourcePoint"/>
            <mxPoint x="385" y="485" as="targetPoint"/>
          </mxGeometry>
        </mxCell>
        <mxCell id="jgVqWBmitHmfs1xv6YiN-13" value="" style="endArrow=classic;html=1;exitX=0;exitY=1;exitDx=0;exitDy=0;strokeWidth=2;entryX=0.5;entryY=0;entryDx=0;entryDy=0;" edge="1" parent="1" source="jgVqWBmitHmfs1xv6YiN-16" target="jgVqWBmitHmfs1xv6YiN-22">
          <mxGeometry width="50" height="50" relative="1" as="geometry">
            <mxPoint x="460" y="380" as="sourcePoint"/>
            <mxPoint x="295" y="410" as="targetPoint"/>
          </mxGeometry>
        </mxCell>
        <mxCell id="jgVqWBmitHmfs1xv6YiN-14" value="" style="endArrow=classic;html=1;strokeWidth=2;exitX=1;exitY=1;exitDx=0;exitDy=0;entryX=0.5;entryY=0;entryDx=0;entryDy=0;" edge="1" parent="1" source="jgVqWBmitHmfs1xv6YiN-16" target="jgVqWBmitHmfs1xv6YiN-23">
          <mxGeometry width="50" height="50" relative="1" as="geometry">
            <mxPoint x="380" y="350" as="sourcePoint"/>
            <mxPoint x="415" y="400" as="targetPoint"/>
          </mxGeometry>
        </mxCell>
        <mxCell id="jgVqWBmitHmfs1xv6YiN-15" value="&lt;span style=&quot;white-space: normal&quot;&gt;1.1.2&lt;br&gt;&lt;/span&gt;Authenticate User Type" style="shape=process;whiteSpace=wrap;html=1;backgroundOutline=1;" vertex="1" parent="1">
          <mxGeometry x="330" y="240" width="90" height="80" as="geometry"/>
        </mxCell>
        <mxCell id="jgVqWBmitHmfs1xv6YiN-16" value="" style="rhombus;whiteSpace=wrap;html=1;fillColor=#FFFFFF;" vertex="1" parent="1">
          <mxGeometry x="365" y="305" width="20" height="30" as="geometry"/>
        </mxCell>
        <mxCell id="jgVqWBmitHmfs1xv6YiN-17" value="" style="endArrow=classic;html=1;exitX=0.5;exitY=1;exitDx=0;exitDy=0;entryX=0.5;entryY=0;entryDx=0;entryDy=0;strokeWidth=2;" edge="1" parent="1" source="jgVqWBmitHmfs1xv6YiN-1" target="jgVqWBmitHmfs1xv6YiN-15">
          <mxGeometry width="50" height="50" relative="1" as="geometry">
            <mxPoint x="442.5" y="140" as="sourcePoint"/>
            <mxPoint x="237.5" y="260" as="targetPoint"/>
          </mxGeometry>
        </mxCell>
        <mxCell id="jgVqWBmitHmfs1xv6YiN-18" value="" style="endArrow=classic;html=1;strokeWidth=2;entryX=0.5;entryY=0;entryDx=0;entryDy=0;exitX=0.5;exitY=1;exitDx=0;exitDy=0;" edge="1" parent="1" source="jgVqWBmitHmfs1xv6YiN-1" target="jgVqWBmitHmfs1xv6YiN-21">
          <mxGeometry width="50" height="50" relative="1" as="geometry">
            <mxPoint x="455" y="120" as="sourcePoint"/>
            <mxPoint x="495" y="240" as="targetPoint"/>
          </mxGeometry>
        </mxCell>
        <mxCell id="jgVqWBmitHmfs1xv6YiN-19" value="5.1.4.1&lt;br&gt;Retrieve List of Supervisors from Staff Table" style="shape=process;whiteSpace=wrap;html=1;backgroundOutline=1;" vertex="1" parent="1">
          <mxGeometry x="560" y="390" width="100" height="90" as="geometry"/>
        </mxCell>
        <mxCell id="jgVqWBmitHmfs1xv6YiN-20" value="" style="endArrow=classic;html=1;strokeWidth=2;entryX=0.5;entryY=0;entryDx=0;entryDy=0;exitX=0.5;exitY=1;exitDx=0;exitDy=0;" edge="1" parent="1" source="jgVqWBmitHmfs1xv6YiN-21" target="jgVqWBmitHmfs1xv6YiN-19">
          <mxGeometry width="50" height="50" relative="1" as="geometry">
            <mxPoint x="600" y="320" as="sourcePoint"/>
            <mxPoint x="705" y="412.5" as="targetPoint"/>
          </mxGeometry>
        </mxCell>
        <mxCell id="jgVqWBmitHmfs1xv6YiN-21" value="1.1.4&lt;br&gt;Get Required Information from Database" style="shape=process;whiteSpace=wrap;html=1;backgroundOutline=1;" vertex="1" parent="1">
          <mxGeometry x="565" y="240" width="90" height="90" as="geometry"/>
        </mxCell>
        <mxCell id="jgVqWBmitHmfs1xv6YiN-22" value="1.1.1.1&lt;br&gt;Allow Access" style="shape=process;whiteSpace=wrap;html=1;backgroundOutline=1;" vertex="1" parent="1">
          <mxGeometry x="325" y="390" width="90" height="80" as="geometry"/>
        </mxCell>
        <mxCell id="jgVqWBmitHmfs1xv6YiN-23" value="1.1.1.2&lt;br&gt;Deny Access" style="shape=process;whiteSpace=wrap;html=1;backgroundOutline=1;" vertex="1" parent="1">
          <mxGeometry x="435" y="390" width="90" height="80" as="geometry"/>
        </mxCell>
        <mxCell id="jgVqWBmitHmfs1xv6YiN-24" value="1.1.3&lt;br&gt;Connect to Database" style="shape=process;whiteSpace=wrap;html=1;backgroundOutline=1;" vertex="1" parent="1">
          <mxGeometry x="445" y="240" width="90" height="80" as="geometry"/>
        </mxCell>
        <mxCell id="jgVqWBmitHmfs1xv6YiN-25" value="" style="endArrow=classic;html=1;strokeWidth=2;entryX=0.5;entryY=0;entryDx=0;entryDy=0;exitX=0.5;exitY=1;exitDx=0;exitDy=0;" edge="1" parent="1" source="jgVqWBmitHmfs1xv6YiN-1" target="jgVqWBmitHmfs1xv6YiN-24">
          <mxGeometry width="50" height="50" relative="1" as="geometry">
            <mxPoint x="352.5" y="120" as="sourcePoint"/>
            <mxPoint x="517.5" y="240" as="targetPoint"/>
          </mxGeometry>
        </mxCell>
      </root>
    </mxGraphModel>
  </diagram>
  <diagram id="wrn4EuMnWqhn6-JjEHsF" name="5.2: Add GH Info to GH Table">
    <mxGraphModel dx="1038" dy="580" grid="1" gridSize="10" guides="1" tooltips="1" connect="1" arrows="1" fold="1" page="1" pageScale="1" pageWidth="850" pageHeight="1100" math="0" shadow="0">
      <root>
        <mxCell id="AA5VKMLSnAY4iOPwGdW7-0"/>
        <mxCell id="AA5VKMLSnAY4iOPwGdW7-1" parent="AA5VKMLSnAY4iOPwGdW7-0"/>
        <mxCell id="Tn5jLS5-ciOHaMqgCwaN-0" value="5.2&lt;br&gt;Add Group Home Info Into Group Home Table" style="whiteSpace=wrap;html=1;aspect=fixed;" vertex="1" parent="AA5VKMLSnAY4iOPwGdW7-1">
          <mxGeometry x="420" y="70" width="80" height="80" as="geometry"/>
        </mxCell>
        <mxCell id="Tn5jLS5-ciOHaMqgCwaN-1" value="" style="endArrow=classic;html=1;exitX=0.25;exitY=1;exitDx=0;exitDy=0;entryX=0.5;entryY=0;entryDx=0;entryDy=0;strokeWidth=2;" edge="1" parent="AA5VKMLSnAY4iOPwGdW7-1" source="Tn5jLS5-ciOHaMqgCwaN-0" target="Tn5jLS5-ciOHaMqgCwaN-2">
          <mxGeometry width="50" height="50" relative="1" as="geometry">
            <mxPoint x="310" y="190" as="sourcePoint"/>
            <mxPoint x="160" y="270" as="targetPoint"/>
          </mxGeometry>
        </mxCell>
        <mxCell id="Tn5jLS5-ciOHaMqgCwaN-2" value="&lt;span style=&quot;white-space: normal&quot;&gt;1.2.1&lt;br&gt;&lt;/span&gt;Retrieve Submitted Form Data" style="shape=process;whiteSpace=wrap;html=1;backgroundOutline=1;" vertex="1" parent="AA5VKMLSnAY4iOPwGdW7-1">
          <mxGeometry x="300" y="270" width="90" height="80" as="geometry"/>
        </mxCell>
        <mxCell id="Tn5jLS5-ciOHaMqgCwaN-3" value="&lt;span style=&quot;white-space: normal&quot;&gt;1.2.2&lt;br&gt;&lt;/span&gt;Verify Submitted Form Data" style="shape=process;whiteSpace=wrap;html=1;backgroundOutline=1;" vertex="1" parent="AA5VKMLSnAY4iOPwGdW7-1">
          <mxGeometry x="415" y="270" width="90" height="80" as="geometry"/>
        </mxCell>
        <mxCell id="Tn5jLS5-ciOHaMqgCwaN-4" value="" style="endArrow=classic;html=1;exitX=0.5;exitY=1;exitDx=0;exitDy=0;entryX=0.5;entryY=0;entryDx=0;entryDy=0;strokeWidth=2;" edge="1" parent="AA5VKMLSnAY4iOPwGdW7-1" source="Tn5jLS5-ciOHaMqgCwaN-0" target="Tn5jLS5-ciOHaMqgCwaN-3">
          <mxGeometry width="50" height="50" relative="1" as="geometry">
            <mxPoint x="467.5" y="170" as="sourcePoint"/>
            <mxPoint x="262.5" y="290" as="targetPoint"/>
          </mxGeometry>
        </mxCell>
        <mxCell id="Tn5jLS5-ciOHaMqgCwaN-5" value="" style="endArrow=classic;html=1;strokeWidth=2;entryX=0.5;entryY=0;entryDx=0;entryDy=0;exitX=0.75;exitY=1;exitDx=0;exitDy=0;" edge="1" parent="AA5VKMLSnAY4iOPwGdW7-1" source="Tn5jLS5-ciOHaMqgCwaN-0" target="Tn5jLS5-ciOHaMqgCwaN-6">
          <mxGeometry width="50" height="50" relative="1" as="geometry">
            <mxPoint x="480" y="130" as="sourcePoint"/>
            <mxPoint x="560" y="270" as="targetPoint"/>
          </mxGeometry>
        </mxCell>
        <mxCell id="Tn5jLS5-ciOHaMqgCwaN-6" value="5.2.3&lt;br&gt;Insert Submitted Form Data Into Group Home Table" style="whiteSpace=wrap;html=1;aspect=fixed;" vertex="1" parent="AA5VKMLSnAY4iOPwGdW7-1">
          <mxGeometry x="530" y="270" width="90" height="90" as="geometry"/>
        </mxCell>
        <mxCell id="Tn5jLS5-ciOHaMqgCwaN-7" value="" style="endArrow=classic;html=1;curved=1;" edge="1" parent="AA5VKMLSnAY4iOPwGdW7-1">
          <mxGeometry width="50" height="50" relative="1" as="geometry">
            <mxPoint x="455" y="149.9999999999999" as="sourcePoint"/>
            <mxPoint x="430" y="150" as="targetPoint"/>
            <Array as="points">
              <mxPoint x="490" y="160"/>
              <mxPoint x="470" y="180"/>
              <mxPoint x="410" y="180"/>
              <mxPoint x="400" y="160"/>
            </Array>
          </mxGeometry>
        </mxCell>
      </root>
    </mxGraphModel>
  </diagram>
</mxfile>
